<svg xmlns="http://www.w3.org/2000/svg" viewBox="0 0 512 512">
  <defs>
    <linearGradient id="bgGrad" x1="0%" y1="0%" x2="100%" y2="100%">
      <stop offset="0%" style="stop-color:#1a2e1a"/>
      <stop offset="100%" style="stop-color:#2d4a2d"/>
    </linearGradient>
    <linearGradient id="leafGrad" x1="0%" y1="0%" x2="100%" y2="100%">
      <stop offset="0%" style="stop-color:#7eb07e"/>
      <stop offset="100%" style="stop-color:#4a7c4a"/>
    </linearGradient>
  </defs>

  <!-- Background -->
  <rect width="512" height="512" rx="96" fill="url(#bgGrad)"/>

  <!-- Decorative circle -->
  <circle cx="256" cy="256" r="180" fill="none" stroke="#d4a84b" stroke-width="3" opacity="0.3"/>

  <!-- Leaf shape -->
  <path d="M256 80
           C 180 140, 140 220, 150 300
           C 160 360, 200 400, 256 420
           C 312 400, 352 360, 362 300
           C 372 220, 332 140, 256 80"
        fill="url(#leafGrad)"/>

  <!-- Leaf vein (center) -->
  <path d="M256 100 L256 400"
        stroke="#1a2e1a"
        stroke-width="4"
        stroke-linecap="round"
        opacity="0.4"/>

  <!-- Leaf veins (sides) -->
  <path d="M256 160 L200 200 M256 220 L185 270 M256 280 L195 340"
        stroke="#1a2e1a"
        stroke-width="3"
        stroke-linecap="round"
        opacity="0.3"/>
  <path d="M256 160 L312 200 M256 220 L327 270 M256 280 L317 340"
        stroke="#1a2e1a"
        stroke-width="3"
        stroke-linecap="round"
        opacity="0.3"/>

  <!-- Gold accent dot -->
  <circle cx="256" cy="130" r="12" fill="#d4a84b"/>
</svg>
